<?xml version="1.0" standalone="no"?>
<!DOCTYPE svg PUBLIC "-//W3C//DTD SVG 20010904//EN"
 "http://www.w3.org/TR/2001/REC-SVG-20010904/DTD/svg10.dtd">
<svg version="1.0" xmlns="http://www.w3.org/2000/svg"
 width="512.000000pt" height="512.000000pt" viewBox="0 0 512.000000 512.000000"
 preserveAspectRatio="xMidYMid meet">

<g transform="translate(0.000000,512.000000) scale(0.100000,-0.100000)"
fill="#000000" stroke="none">
<path d="M391 4719 c-102 -20 -194 -93 -240 -189 l-26 -55 -3 -1362 -2 -1362
21 -58 c30 -77 101 -152 182 -189 62 -28 63 -28 305 -32 l242 -4 1 -477 c1
-262 4 -487 8 -501 10 -35 52 -57 86 -45 14 6 295 238 625 518 l600 507 1232
0 c741 0 1256 4 1292 10 112 18 208 87 257 187 l24 48 0 1385 0 1385 -25 50
c-33 69 -107 139 -177 167 l-58 23 -2150 1 c-1182 1 -2170 -2 -2194 -7z m4381
-164 c23 -17 53 -49 65 -70 l23 -40 0 -1343 c0 -1321 0 -1343 -20 -1382 -24
-47 -71 -84 -125 -99 -28 -8 -423 -11 -1310 -11 l-1270 0 -525 -446 c-289
-245 -542 -459 -563 -476 l-37 -30 0 405 0 405 124 4 c141 3 166 15 166 73 0
67 8 65 -445 65 -240 0 -423 4 -445 10 -57 15 -103 51 -128 100 l-22 44 0
1336 c0 1282 1 1337 19 1376 21 47 70 88 121 102 23 7 777 10 2182 9 l2146 -2
44 -30z"/>
<path d="M488 4293 c-23 -27 -27 -46 -14 -75 6 -14 273 -249 601 -528 325
-277 593 -505 597 -509 4 -3 -265 -283 -598 -621 -546 -555 -604 -617 -604
-646 0 -34 37 -74 69 -74 9 -1 293 279 632 621 l615 622 289 -246 c159 -136
309 -257 334 -269 38 -19 62 -23 146 -23 84 0 107 4 147 23 25 13 176 133 333
268 158 134 290 244 294 244 4 0 263 -261 576 -579 353 -361 577 -582 593
-586 36 -9 76 23 80 65 3 30 -11 47 -220 259 -123 124 -381 385 -572 579
l-349 354 29 28 c16 16 281 243 589 505 308 261 566 487 573 501 27 50 -16
102 -76 92 -11 -2 -437 -358 -946 -793 -510 -434 -943 -798 -962 -808 -47 -24
-131 -24 -177 0 -19 10 -165 129 -323 264 -1022 872 -1420 1211 -1497 1276
-93 77 -129 90 -159 56z"/>
</g>
</svg>
