<?xml version="1.0" standalone="no"?>
<!DOCTYPE svg PUBLIC "-//W3C//DTD SVG 20010904//EN"
 "http://www.w3.org/TR/2001/REC-SVG-20010904/DTD/svg10.dtd">
<svg version="1.0" xmlns="http://www.w3.org/2000/svg"
 width="512.000000pt" height="512.000000pt" viewBox="0 0 512.000000 512.000000"
 preserveAspectRatio="xMidYMid meet">

<g transform="translate(0.000000,512.000000) scale(0.100000,-0.100000)"
fill="#000000" stroke="none">
<path d="M2663 5106 c-87 -28 -148 -81 -185 -161 -29 -66 -32 -201 -5 -256 49
-98 132 -143 301 -164 738 -92 1218 -381 1461 -880 118 -243 200 -564 225
-875 5 -63 16 -136 25 -161 89 -255 487 -240 556 21 16 62 12 366 -7 508 -30
234 -98 454 -209 680 -356 726 -1063 1223 -1835 1292 -153 13 -276 12 -327 -4z
m316 -201 c118 -7 222 -27 370 -70 341 -100 650 -290 910 -561 267 -278 441
-586 531 -944 43 -174 54 -267 55 -473 0 -186 0 -189 -24 -208 -15 -12 -39
-19 -66 -19 -62 0 -82 28 -89 128 -43 551 -216 1029 -487 1337 -294 336 -758
551 -1358 630 -123 16 -157 28 -165 59 -7 28 10 90 29 106 24 20 75 28 140 24
33 -2 102 -6 154 -9z"/>
<path d="M945 4869 c-199 -18 -505 -185 -653 -357 -110 -126 -197 -314 -217
-465 -11 -84 -6 -249 10 -333 59 -311 395 -983 739 -1479 449 -648 1126 -1294
1789 -1709 339 -212 733 -395 1048 -488 201 -59 356 -41 576 67 302 148 549
420 645 710 30 93 33 263 4 343 -41 119 -140 234 -326 378 -112 88 -502 368
-571 411 -178 111 -337 154 -494 132 -175 -24 -299 -105 -438 -284 -38 -49
-81 -98 -96 -107 -53 -36 -139 -16 -299 66 -324 168 -602 418 -779 702 -130
207 -187 366 -163 453 14 53 45 88 133 152 152 111 231 208 269 332 30 102 22
232 -21 342 -47 116 -110 229 -226 405 -246 372 -522 654 -688 706 -72 22
-159 30 -242 23z m168 -214 c66 -20 124 -64 242 -187 227 -233 476 -600 561
-823 21 -57 25 -81 21 -131 -8 -112 -55 -173 -238 -315 -97 -75 -151 -148
-174 -235 -32 -124 -12 -231 79 -419 208 -430 533 -753 992 -983 147 -74 217
-95 310 -95 122 1 191 45 303 192 115 151 207 211 338 219 144 9 245 -36 514
-229 527 -378 609 -454 640 -598 30 -142 -71 -361 -251 -541 -177 -178 -409
-298 -580 -301 -119 -1 -426 108 -745 266 -510 252 -976 597 -1466 1085 -548
546 -953 1146 -1267 1880 -85 199 -112 293 -119 425 -20 356 197 644 584 775
100 34 180 38 256 15z"/>
<path d="M1037 2749 c-21 -12 -47 -61 -47 -87 0 -30 57 -134 90 -164 39 -36
87 -37 128 -3 46 38 49 75 15 142 -43 86 -82 123 -129 123 -22 0 -47 -5 -57
-11z"/>
<path d="M1319 2281 c-22 -23 -29 -39 -29 -69 0 -33 10 -52 57 -113 224 -289
522 -589 830 -836 65 -52 131 -101 147 -110 38 -20 89 -9 115 23 53 67 36 112
-72 196 -297 229 -616 544 -846 836 -39 49 -78 93 -87 96 -39 15 -86 6 -115
-23z"/>
<path d="M2657 4380 c-106 -18 -168 -68 -216 -170 -35 -76 -36 -193 -2 -263
46 -94 142 -151 286 -171 28 -4 111 -23 185 -43 541 -141 708 -356 799 -1027
24 -172 123 -266 281 -266 131 0 239 69 280 178 20 53 21 70 17 247 -5 205
-16 276 -69 430 -74 219 -195 412 -368 586 -291 294 -611 446 -1040 494 -30 3
-66 8 -80 9 -14 2 -46 0 -73 -4z m280 -230 c146 -26 244 -59 388 -131 378
-188 654 -534 740 -929 22 -101 32 -345 16 -393 -10 -30 -20 -39 -51 -48 -81
-24 -113 8 -125 126 -11 111 -54 310 -90 420 -136 415 -382 619 -902 749 -54
13 -131 29 -170 36 -43 7 -83 20 -99 32 -24 19 -26 26 -22 76 7 81 29 96 130
88 42 -3 125 -15 185 -26z"/>
<path d="M2609 3617 c-137 -39 -215 -136 -226 -280 -7 -83 13 -143 69 -203 44
-48 101 -73 231 -103 101 -24 149 -46 195 -92 49 -48 71 -98 97 -224 25 -122
39 -156 87 -210 103 -118 290 -128 406 -22 81 76 108 163 99 326 -11 214 -108
405 -294 581 -164 155 -327 230 -513 236 -66 3 -122 -1 -151 -9z m229 -202
c208 -49 422 -253 503 -481 26 -71 31 -221 11 -271 -17 -38 -62 -60 -99 -47
-42 15 -61 53 -82 158 -28 137 -74 232 -153 309 -76 75 -141 108 -290 147
-132 35 -154 51 -144 105 16 85 109 114 254 80z"/>
</g>
</svg>
