<?xml version="1.0" standalone="no"?>
<!DOCTYPE svg PUBLIC "-//W3C//DTD SVG 20010904//EN"
 "http://www.w3.org/TR/2001/REC-SVG-20010904/DTD/svg10.dtd">
<svg version="1.0" xmlns="http://www.w3.org/2000/svg"
 width="512.000000pt" height="512.000000pt" viewBox="0 0 512.000000 512.000000"
 preserveAspectRatio="xMidYMid meet">

<g transform="translate(0.000000,512.000000) scale(0.100000,-0.100000)"
fill="#000000" stroke="none">
<path d="M1325 4496 c-45 -20 -59 -40 -129 -186 -283 -595 -352 -1304 -186
-1943 59 -230 178 -502 295 -677 376 -559 989 -840 1605 -734 160 28 351 92
375 127 22 31 19 90 -5 112 -19 17 -30 17 -188 6 -558 -39 -821 17 -1136 241
-304 215 -521 551 -635 980 -153 571 -104 1187 141 1797 40 98 49 132 44 160
-14 88 -109 150 -181 117z"/>
<path d="M3423 1855 c-55 -24 -68 -74 -33 -130 29 -46 168 -163 365 -305 94
-67 176 -128 183 -134 11 -11 -9 -29 -105 -98 -242 -175 -450 -301 -650 -394
-196 -90 -188 -85 -191 -121 -2 -25 2 -35 21 -48 23 -15 31 -15 93 0 235 53
448 158 794 390 137 92 261 180 275 197 29 35 32 72 7 109 -48 72 -317 300
-492 416 -191 127 -219 139 -267 118z"/>
</g>
</svg>
